# xmcd
#
# Track frame offsets: 
#        150
#        27510
#        52355
#        73622
#        94938
#        123304
#        148368
#        172452
#        190979
#        211044
#        235756
#        255346
#        276663
#        297012
#        315013
#
# Disc length: 4406 seconds
#
# Revision: 0
# Processed by: cddbd v1.5.2PL0 Copyright (c) Steve Scherf et al.
# Submitted via: ExactAudioCopy v1.3
#
DISCID=ec11340f
DTITLE=Blueville - Butterfly Blues
DYEAR=2011
DGENRE=Electric Blues
TTITLE0=When I Ring The Bell
TTITLE1=Love Letters In My Guitar Case
TTITLE2=Misery
TTITLE3=The Blues Is Mine
TTITLE4=Rosemary Lane
TTITLE5=Indian Road
TTITLE6=Every Year Of Your Life
TTITLE7=Little Town Man
TTITLE8=Sorry Baby
TTITLE9=Blues From The Edge Of Town
TTITLE10=Talking 'bout My Baby
TTITLE11=Turning Blue
TTITLE12=Low And Slow
TTITLE13=Blues Generation
TTITLE14=Butterfly Blues
EXTD=
EXTT0=
EXTT1=
EXTT2=
EXTT3=
EXTT4=
EXTT5=
EXTT6=
EXTT7=
EXTT8=
EXTT9=
EXTT10=
EXTT11=
EXTT12=
EXTT13=
EXTT14=
PLAYORDER=
